<?xml version="1.0" encoding="UTF-8"?>
<svg id="Layer_1" data-name="Layer 1" xmlns="http://www.w3.org/2000/svg" version="1.1" viewBox="0 0 33 33">
  <defs>
    <style>
      .cls-1 {
        fill: #fff;
        stroke-width: 0px;
      }
    </style>
  </defs>
  <path class="cls-1" d="M2.7,23.4c3.5,6.4,11.2,9.5,18.2,7.3l-.3-.9c-6.6,2.1-13.7-.8-17-6.9C-.3,16,2.3,7.1,9.3,3.3c7-3.8,15.8-1.3,19.7,5.7,3.1,5.7,2,12.7-2.5,17.2,0,0-1,.9-1.6,1.4l.6-1.2-.9-.4-1.3,2.6c-.3.6,0,.9,0,1,.1.1.4.4,1,.3l2.8-.7-.2-.9-1.9.5c.4-.3,1.3-1,1.3-1,5.6-4.7,7.1-12.8,3.5-19.2C25.9,1.4,17.1-1.4,9.8,2s-.6.3-.9.5C1.4,6.5-1.4,16,2.7,23.4Z"/>
  <path class="cls-1" d="M27.9,10.5c-3-6.4-10.6-9.2-17-6.2S1.7,14.9,4.7,21.3s10.6,9.2,17,6.2c6.4-3,9.2-10.6,6.2-17ZM21.3,26.7c-5.9,2.7-13,.2-15.7-5.8s-.2-13,5.8-15.7,13-.2,15.7,5.8c2.8,5.9.2,13-5.8,15.7Z"/>
  <rect class="cls-1" x="19.9" y="23.3" width="1" height="2.7" transform="translate(-8.5 10.9) rotate(-24.9)"/>
  <rect class="cls-1" x="23.7" y="11.4" width="2.7" height="1" transform="translate(-2.7 11.6) rotate(-24.9)"/>
  <rect class="cls-1" x="11.8" y="5.8" width="1" height="2.7" transform="translate(-1.9 5.8) rotate(-24.9)"/>
  <rect class="cls-1" x="6.2" y="19.5" width="2.7" height="1" transform="translate(-7.7 5) rotate(-24.9)"/>
  <rect class="cls-1" x="23.7" y="20.5" width="1" height="1.9" transform="translate(-7.3 28.9) rotate(-54.9)"/>
  <rect class="cls-1" x="25.4" y="15.8" width="1" height="1.9" transform="translate(6.9 41.1) rotate(-84.9)"/>
  <rect class="cls-1" x="20.9" y="7.5" width="1.9" height="1" transform="translate(2.7 21.3) rotate(-54.9)"/>
  <rect class="cls-1" x="16.2" y="5.8" width="1.9" height="1" transform="translate(9.3 22.8) rotate(-84.8)"/>
  <rect class="cls-1" x="7.9" y="9.4" width="1" height="1.9" transform="translate(-4.9 11.3) rotate(-54.9)"/>
  <rect class="cls-1" x="6.2" y="14.1" width="1" height="1.9" transform="translate(-8.9 20.4) rotate(-84.9)"/>
  <rect class="cls-1" x="9.8" y="23.3" width="1.9" height="1" transform="translate(-14.9 18.9) rotate(-54.9)"/>
  <rect class="cls-1" x="14.5" y="25.1" width="1.9" height="1" transform="translate(-11.4 38.7) rotate(-84.9)"/>
  <path class="cls-1" d="M20.9,12.7l-3.9,1.6-.2-.4c0-.2-.2-.3-.3-.3-.2,0-.3,0-.5,0l-1.3.6c-.1,0-.3.2-.3.4s0,.3,0,.5l.2.3-.6.3h0c-.1,0-.3.2-.3.3,0,.2,0,.3,0,.5l.6,1.3c0,.1.2.3.3.3.2,0,.3,0,.5,0l.7-.4,2.4,4.5c.2.3.5.4.8.3l.6-.3c.3-.1.4-.5.3-.8l-1.9-4.8,3.8-2.1c.3-.2.4-.5.3-.8l-.3-.6c-.1-.3-.5-.4-.8-.3ZM14.9,17l-.3-.7.4-.2.4.7-.4.2ZM18.9,21.4h0s-3.4-6.5-3.4-6.5l.7-.3,2.8,6.9ZM21,13.8l-3.5,1.9-.2-.5,3.7-1.5s0,0,0,0Z"/>
</svg>