<?xml version="1.0" encoding="UTF-8"?>
<svg id="Layer_1" data-name="Layer 1" xmlns="http://www.w3.org/2000/svg" version="1.1" viewBox="0 0 95 118.8">
  <defs>
    <style>
      .cls-1 {
        fill: #fff;
        stroke-width: 0px;
      }
    </style>
  </defs>
  <path class="cls-1" d="M40.1,30l-4.9,4.9,1.4,2.8c-1,1.6-1.7,3.3-2.1,5.2l-3,1v6.9l3,1c.4,1.8,1.2,3.6,2.1,5.2l-1.4,2.8,4.9,4.9,2.8-1.4c1.6,1,3.3,1.7,5.2,2.1l1,3h6.9l1-3c1.8-.4,3.6-1.2,5.2-2.1l2.8,1.4,4.9-4.9-1.4-2.8c1-1.6,1.7-3.3,2.1-5.2l3-1v-6.9l-3-1c-.4-1.8-1.2-3.6-2.1-5.2l1.4-2.8-4.9-4.9-2.8,1.4c-1.6-1-3.3-1.7-5.2-2.1l-1-3h-6.9l-1,3c-1.8.4-3.6,1.2-5.2,2.1l-2.8-1.4ZM43.5,33.4c1.7-1.1,3.6-1.9,5.5-2.3h.5c0-.1.9-2.8.9-2.8h4.1l.9,2.7h.5c2,.5,3.8,1.3,5.5,2.4l.5.3,2.5-1.3,2.9,2.9-1.3,2.5.3.5c1.1,1.7,1.9,3.6,2.3,5.5v.5c.1,0,2.8.9,2.8.9v4.1l-2.7.9v.5c-.5,2-1.3,3.8-2.4,5.5l-.3.5,1.3,2.5-2.9,2.9-2.5-1.3-.5.3c-1.7,1.1-3.6,1.9-5.5,2.3h-.5c0,.1-.9,2.8-.9,2.8h-4.1l-.9-2.7h-.5c-2-.5-3.8-1.3-5.5-2.4l-.5-.3-2.5,1.3-2.9-2.9,1.3-2.5-.3-.5c-1.1-1.7-1.9-3.6-2.3-5.5v-.5c-.1,0-2.8-.9-2.8-.9v-4.1l2.7-.9v-.5c.5-2,1.3-3.8,2.4-5.5l.3-.5-1.3-2.5,2.9-2.9,2.5,1.3.5-.3ZM52.5,58.3c6.1,0,11-4.9,11-11s-4.9-11-11-11c-6.1,0-11,4.9-11,11,0,6.1,4.9,11,11,11ZM52.5,38.1c5,0,9.1,4.1,9.1,9.1,0,5-4.1,9.1-9.1,9.1-5,0-9.1-4.1-9.1-9.1h0c0-5,4.1-9.1,9.1-9.1ZM52.5,75.3H13.7c-.5,0-1-.4-1-1s.4-1,1-1h38.8c14.4,0,26.1-11.6,26.1-26,0-13.6-10.5-25-24.1-26.1l1.4,1.8c.3.4.3,1-.1,1.3s-1,.3-1.3-.1l-2.7-3.4s0,0,0-.1c0-.1-.1-.2-.1-.4,0,0,0,0,0-.1,0,0,0,0,0,0,0,0,0,0,0,0,0-.1,0-.2,0-.3,0,0,0,0,0-.1,0,0,0-.1.1-.2,0,0,0,0,0,0l3.4-2.7c.4-.3,1-.3,1.3.1s.3,1-.1,1.3h0l-1.5,1.2c15.4,1.5,26.7,15.1,25.2,30.5-1.4,14.3-13.4,25.3-27.8,25.3ZM24.5,47.3c0-11.9,7.5-22.4,18.7-26.4.5-.2,1,0,1.2.6.2.5,0,1-.6,1.2h0c-13.6,4.8-20.7,19.6-16,33.2,1.6,4.6,4.5,8.7,8.3,11.8.4.3.5.9.2,1.3-.3.4-.9.5-1.3.2,0,0,0,0,0,0-6.7-5.3-10.5-13.3-10.5-21.8h0ZM82.1,74.9s0,0,0,.1l-3,3.2c-.4.4-1,.4-1.3,0-.4-.4-.4-.9,0-1.3l1.5-1.6h-12.2c-.5,0-1-.4-1-1,0-.5.4-1,1-1h12l-1.4-1.3c-.4-.4-.4-1,0-1.3.4-.4.9-.4,1.3,0l3.2,3h0c0,0,0,.1.1.2,0,0,0,0,0,.1,0,.1,0,.2,0,.4h0c0,0,0,.1,0,.2,0,0,0,.1,0,.2,0,0,0,.1-.1.2Z"/>
</svg>