<?xml version="1.0" encoding="UTF-8"?>
<svg id="Layer_1" data-name="Layer 1" xmlns="http://www.w3.org/2000/svg" version="1.1" viewBox="0 0 110 135">
  <defs>
    <style>
      .cls-1 {
        fill: #fff;
        stroke-width: 0px;
      }
    </style>
  </defs>
  <path class="cls-1" d="M77.4,70c-.6,0-1.1-.5-1.2-1.1,0-.6.5-1.2,1.1-1.2,0,0,5-.2,9.2-2.8.6-.3,1.3-.2,1.6.4.3.6.2,1.3-.4,1.6-4.7,2.9-10.1,3.1-10.3,3.1h0Z"/>
  <path class="cls-1" d="M26.4,68.7c-.3,0-.6-.1-.8-.3l-2.9-2.9c-.5-.5-.5-1.2,0-1.7s1.2-.5,1.7,0l2.9,2.9c.5.5.5,1.2,0,1.7-.2.2-.5.3-.8.3h0Z"/>
  <path class="cls-1" d="M48.6,88.9c-1.5,0-3-.6-4.1-1.7l-1.9-1.9c-.5-.5-.5-1.2,0-1.7s1.2-.5,1.7,0l1.9,1.9c1.3,1.3,3.5,1.3,4.9,0,.7-.7,1-1.5,1-2.4s0-.9-.3-1.3c-.2-.4-.4-.8-.8-1.1-.5-.5-.5-1.2,0-1.7.5-.5,1.2-.5,1.7,0l4.3,4.3c.7.7,1.5,1,2.4,1s1.8-.4,2.4-1c.7-.7,1-1.5,1-2.4s-.4-1.8-1-2.4c-.5-.5-.5-1.2,0-1.7.5-.5,1.2-.5,1.7,0,1.1,1.1,1.7,2.5,1.7,4.1s-.6,3-1.7,4.1c-1.1,1.1-2.5,1.7-4.1,1.7s-3-.6-4.1-1.7l-1-1c-.2,1.2-.7,2.4-1.6,3.3-1.1,1.1-2.6,1.7-4.1,1.7h0Z"/>
  <path class="cls-1" d="M67.8,82c-1.5,0-3-.6-4.1-1.7l-10.5-10.5c-.5-.5-.5-1.2,0-1.7.5-.5,1.2-.5,1.7,0l10.5,10.5c1.3,1.3,3.5,1.3,4.9,0,1.3-1.3,1.3-3.5,0-4.9l-10.5-10.5c-.5-.5-.5-1.2,0-1.7.5-.5,1.2-.5,1.7,0l10.5,10.5c2.3,2.3,2.3,5.9,0,8.2-1.1,1.1-2.6,1.7-4.1,1.7h0Z"/>
  <path class="cls-1" d="M72.8,73.9c-1.5,0-3-.6-4.1-1.7-.5-.5-.5-1.2,0-1.7.5-.5,1.2-.5,1.7,0,1.3,1.3,3.5,1.3,4.9,0,.5-.5.9-1.2,1-1.9,0,0,0,0,0,0,0-.2,0-.3,0-.5,0-.9-.4-1.8-1-2.4l-16.7-16.7c-1.2-1.2-3-1.7-4.6-1.2-.8.2-1.6.7-2.2,1.3l-5.2,5.7s0,0,0,0c-2.5,2.5-6.5,2.5-8.9,0-2-2-2.4-5-1.1-7.4,1.7-3.1,4.6-7.5,8.9-10.2,0,0,0,0,0,0,3.5-2.2,7.4-3,11.5-2.2.6,0,9.1,1.4,15.8,6l6.8-3c.6-.3,1.3,0,1.5.6s0,1.3-.6,1.5l-7.4,3.2c-.4.2-.8.1-1.2-.1-6.4-4.6-15.2-5.9-15.3-5.9,0,0,0,0,0,0-3.5-.6-6.9,0-9.9,1.9,0,0,0,0,0,0-3.8,2.4-6.5,6.4-8,9.3-.8,1.6-.5,3.4.7,4.7.8.8,1.8,1.2,2.8,1.2s2.1-.4,2.8-1.2l5.2-5.6c.9-1,2-1.7,3.3-2,2.5-.7,5.1,0,6.9,1.8l16.7,16.7c1.1,1.1,1.7,2.6,1.7,4.1s0,.6,0,.9c-.2,1.2-.8,2.3-1.6,3.2-1.1,1.1-2.6,1.7-4.1,1.7h0Z"/>
  <path class="cls-1" d="M30.2,40.7c-.5,0-1-.4-1.1-.9-.1-.6.2-1.3.9-1.4,7.3-1.7,15.6-1.5,16-1.5.6,0,1.1.5,1.1,1.2s-.5,1.2-1.2,1.2c-.3,0-8.4-.2-15.4,1.4,0,0-.2,0-.3,0h0Z"/>
  <path class="cls-1" d="M29.1,73.2c-1.1,0-2.1-.4-3-1.2-1.6-1.6-1.6-4.3,0-5.9l3.6-3.6c1.6-1.6,4.3-1.6,5.9,0s1.6,4.3,0,5.9c-.5.5-1.2.5-1.7,0-.5-.5-.5-1.2,0-1.7.7-.7.7-1.9,0-2.6s-1.9-.7-2.6,0l-3.6,3.6c-.7.7-.7,1.9,0,2.6s1.9.7,2.6,0c.5-.5,1.2-.5,1.7,0,.5.5.5,1.2,0,1.7-.8.8-1.9,1.2-3,1.2h0Z"/>
  <path class="cls-1" d="M32.1,78.7c-1.1,0-2.2-.4-3-1.2-.8-.8-1.2-1.8-1.2-3s.4-2.2,1.2-3l4.8-4.8c1.6-1.6,4.3-1.6,5.9,0s1.6,4.3,0,5.9-1.2.5-1.7,0c-.5-.5-.5-1.2,0-1.7.7-.7.7-1.9,0-2.6s-1.9-.7-2.6,0l-4.8,4.8c-.3.3-.5.8-.5,1.3s.2,1,.5,1.3c.3.3.8.5,1.3.5s1-.2,1.3-.5c.5-.5,1.2-.5,1.7,0s.5,1.2,0,1.7c-.8.8-1.8,1.2-3,1.2h0Z"/>
  <path class="cls-1" d="M34.9,84.4c-1.1,0-2.2-.4-3-1.2-1.6-1.6-1.6-4.3,0-5.9l6.2-6.2c.8-.8,1.8-1.2,3-1.2s2.2.4,3,1.2c.8.8,1.2,1.8,1.2,3s-.4,2.2-1.2,3l-6.2,6.2c-.8.8-1.8,1.2-3,1.2h0ZM41.1,72.1c-.5,0-1,.2-1.3.5l-6.2,6.2c-.7.7-.7,1.9,0,2.6.3.3.8.5,1.3.5s1-.2,1.3-.5l6.2-6.2c.3-.3.5-.8.5-1.3s-.2-1-.5-1.3c-.3-.3-.8-.5-1.3-.5Z"/>
  <path class="cls-1" d="M41,86.8c-1.1,0-2.1-.4-3-1.2-.8-.8-1.2-1.8-1.2-3s.4-2.2,1.2-3c.5-.5,1.2-.5,1.7,0s.5,1.2,0,1.7c-.3.3-.5.8-.5,1.3s.2,1,.5,1.3c.7.7,1.9.7,2.6,0l4.4-4.4c.3-.3.5-.8.5-1.3s-.2-1-.5-1.3c-.7-.7-1.9-.7-2.6,0-.5.5-1.2.5-1.7,0-.5-.5-.5-1.2,0-1.7,1.6-1.6,4.3-1.6,5.9,0,.8.8,1.2,1.8,1.2,3s-.4,2.2-1.2,3l-4.4,4.4c-.8.8-1.9,1.2-3,1.2h0Z"/>
  <path class="cls-1" d="M91.3,69.5c-2.6,0-5.1-1.8-5.8-4.4l-6.6-24.6c-.9-3.2,1-6.5,4.2-7.3l6.4-1.7c.6-.2,1.3.2,1.4.8s-.2,1.3-.8,1.4l-6.4,1.7c-1.9.5-3.1,2.5-2.6,4.5l6.6,24.6c.5,1.9,2.5,3.1,4.5,2.6l6.4-1.7c.6-.2,1.3.2,1.4.8.2.6-.2,1.3-.8,1.4l-6.4,1.7c-.5.1-1,.2-1.5.2h0Z"/>
  <path class="cls-1" d="M18.8,69.5c-.5,0-1,0-1.5-.2l-6.4-1.7c-.6-.2-1-.8-.8-1.4s.8-1,1.4-.8l6.4,1.7c.9.2,1.9.1,2.8-.4.8-.5,1.4-1.3,1.7-2.2l6.6-24.6c.5-1.9-.6-3.9-2.6-4.5l-6.4-1.7c-.6-.2-1-.8-.8-1.4.2-.6.8-1,1.4-.8l6.4,1.7c3.2.9,5.1,4.1,4.2,7.3l-6.6,24.6c-.4,1.5-1.4,2.8-2.8,3.6-.9.5-1.9.8-3,.8h0Z"/>
</svg>