<svg xmlns="http://www.w3.org/2000/svg" version="1.1" viewBox="-5.0 -10.0 110.0 135.0">
 <g>
  <path d="m63.051 35.891c-0.58984-0.62891-1.582-0.65625-2.207-0.0625l-8.5898 8.1094c-0.69531-0.29297-1.457-0.45703-2.2539-0.45703-3.1914 0-5.7852 2.5977-5.7852 5.7852 0 3.1914 2.5938 5.7891 5.7852 5.7891s5.7852-2.5938 5.7852-5.7852c0-1.25-0.40625-2.3984-1.082-3.3477l8.2852-7.8242c0.625-0.59375 0.65625-1.582 0.0625-2.207zm-13.051 16.039c-1.4688 0-2.6602-1.1914-2.6602-2.6602s1.1914-2.6641 2.6602-2.6641 2.6602 1.1953 2.6602 2.6602c0 1.4688-1.1914 2.6641-2.6602 2.6641z"/>
  <path d="m73.926 79.086h-4.8906v-19.727c0-0.86328-0.69922-1.5625-1.5625-1.5625h-9.1094c-0.86328 0-1.5625 0.69922-1.5625 1.5625v5.5312h-5.9844v-5.5312c0-0.86328-0.69922-1.5625-1.5625-1.5625h-9.1094c-0.86328 0-1.5625 0.69922-1.5625 1.5625v1.9531h-7.5508c-0.86328 0-1.5625 0.69922-1.5625 1.5625v16.211h-4.8906c-0.86328 0-1.5625 0.69922-1.5625 1.5625v5.6602c0 0.86328 0.69922 1.5625 1.5625 1.5625l49.348 0.003906c0.86328 0 1.5625-0.69922 1.5625-1.5625v-5.6602c0-0.86719-0.69922-1.5664-1.5625-1.5664zm-14-18.164h5.9844v18.164h-5.9844zm-3.125 7.0977v11.07h-5.9844v-11.07zm-15.098-7.0977h5.9844v18.164h-5.9844zm-9.1094 3.5156h5.9844v14.648h-5.9844zm39.77 20.312h-46.223v-2.5352h46.223z"/>
  <path d="m50 12.125c-20.48 0-37.141 16.66-37.141 37.141 0 7.9531 2.4844 15.535 7.1797 21.922 0.26563 0.36328 0.67188 0.58984 1.1172 0.63281 0.4375 0.042969 0.88672-0.11328 1.2148-0.42187l4.6016-4.3477c0.59766-0.5625 0.64844-1.4844 0.13672-2.1172-3.168-4.6328-4.8438-10.051-4.8438-15.668 0-0.32422 0.039063-0.63672 0.046875-0.95703 0.42969 0.25391 0.89062 0.46875 1.4023 0.58984 0.39844 0.09375 0.80078 0.14062 1.1992 0.14062 0.96094 0 1.9062-0.27344 2.7422-0.80078 1.1914-0.75391 2.0156-1.9336 2.3164-3.3203 2.0117-9.3594 10.438-16.152 20.027-16.152s18.016 6.793 20.031 16.152c0.30078 1.3867 1.1211 2.5664 2.3164 3.3203 1.1797 0.74609 2.582 0.97656 3.9414 0.66016 0.50781-0.12109 0.96875-0.33594 1.4023-0.58984 0.003906 0.32031 0.042969 0.63672 0.042969 0.95703 0 5.6016-1.6641 11-4.8164 15.629-0.54688 0.63281-0.5 1.582 0.10938 2.1562l4.6016 4.3477c0.29297 0.27734 0.67578 0.42578 1.0742 0.42578 0.046875 0 0.09375 0 0.14062-0.007813 0.44531-0.042968 0.85156-0.26953 1.1172-0.63281 4.6953-6.3906 7.1797-13.973 7.1797-21.922 0-20.473-16.66-37.137-37.141-37.137zm-23.086 32.137c-0.12109 0.55859-0.44922 1.0352-0.92969 1.3359-0.46484 0.29688-1.0195 0.39062-1.5508 0.25781-1.0859-0.25781-1.75-1.3164-1.5391-2.4297 1.0859-5.0469 3.5586-9.5781 6.9883-13.195l2.8555 2.9688c-2.8359 3.0352-4.9102 6.8125-5.8242 11.062zm38.074-13.203c-3.7383-3.0781-8.4102-5.0117-13.426-5.3477v-4.0977c6.1875 0.34766 11.836 2.707 16.293 6.4648zm-16.551-5.3477c-5.0156 0.33594-9.6875 2.2695-13.426 5.3477l-2.8672-2.9805c4.457-3.7617 10.105-6.1172 16.293-6.4648zm27.129 20.148c-0.52734 0.12891-1.0859 0.035156-1.5508-0.25781-0.47656-0.30078-0.80859-0.77734-0.92969-1.3359-0.91406-4.25-2.9883-8.0273-5.8242-11.059l2.8555-2.9688c3.4297 3.6211 5.9023 8.1484 6.9883 13.195 0.21094 1.1055-0.45312 2.168-1.5391 2.4258zm2.8906 22.023-2.3242-2.1953c3.0977-4.9258 4.7266-10.574 4.7266-16.422 0-2.2148-0.24609-4.3711-0.69141-6.4531-0.007813-0.035156-0.003907-0.066406-0.011719-0.10156-0.007812-0.03125-0.027344-0.050782-0.035156-0.082032-1.3398-6.0859-4.4805-11.492-8.8359-15.652-0.035156-0.039062-0.050781-0.089843-0.089844-0.12891-0.050781-0.050781-0.11719-0.070312-0.17187-0.10938-5.5156-5.1484-12.895-8.332-21.023-8.332-8.125 0-15.508 3.1797-21.023 8.332-0.054687 0.042969-0.12109 0.0625-0.17578 0.10938-0.039062 0.039063-0.054687 0.085938-0.089843 0.12891-4.3555 4.1602-7.4961 9.5664-8.8359 15.652-0.007812 0.027344-0.027344 0.050782-0.035156 0.078125-0.007813 0.035157-0.003906 0.066407-0.011719 0.097657-0.44141 2.0938-0.6875 4.25-0.6875 6.4609 0 5.8438 1.6289 11.496 4.7266 16.422l-2.3242 2.1953c-3.6406-5.5312-5.5586-11.93-5.5586-18.617 0-18.758 15.258-34.016 34.016-34.016s34.016 15.258 34.016 34.016c0 6.6875-1.918 13.086-5.5586 18.617z"/>
 </g>
</svg>