<svg xmlns="http://www.w3.org/2000/svg" xmlns:xlink="http://www.w3.org/1999/xlink" version="1.1" x="0px" y="0px" viewBox="0 0 500 625" style="enable-background:new 0 0 500 500;" xml:space="preserve"><path d="M279.9,356.1c-0.4-4.2,2.7-8,7-8.4c4.3-0.4,8,2.8,8.4,7c0.8,8.9,16.8,13.7,25.9,6.3c2.3-1.9,3.8-4.4,3.8-7  c0-18.5-45.2-1.5-45.2-36.9c0-12.8,10.2-22.5,22.5-25.3v-5.4c0-4.3,3.4-7.8,8-7.8v0c4.4,0,7.8,3.6,7.7,7.9l-0.1,5.3  c12.3,2.8,22.6,12.5,22.6,25.4c0,4.3-3.5,7.8-7.8,7.8c-4.3,0-7.8-3.5-7.8-7.8c0-9.4-16.5-14.7-25.9-7c-2.3,1.9-3.8,4.4-3.8,7  c0,18.5,45.2,1.5,45.2,36.9c0,12.9-10.3,22.6-22.6,25.4l-0.1,5.4c0,4.3-3.5,7.8-7.8,7.8c-4.3,0-7.8-3.5-7.8-7.8v-5.4  C290.8,376.7,281,368.1,279.9,356.1L279.9,356.1z M310.1,241.3c52.1,0,94.3,42.2,94.3,94.3c0,52.1-42.2,94.3-94.3,94.3  c-52.1,0-94.3-42.2-94.3-94.3C215.9,283.5,258.1,241.3,310.1,241.3L310.1,241.3z M365.8,279.9c-30.7-30.8-80.6-30.8-111.4,0  c-30.7,30.7-30.7,80.6,0,111.3c30.8,30.8,80.6,30.8,111.4,0C396.6,360.5,396.6,310.6,365.8,279.9L365.8,279.9z M309.9,185.4h10.8  c10.4,0,19,8.5,19,19v8.2c0,1.6,0.9,2.9,2.6,3.4c10.4,2.8,20.5,7,29.8,12.3c1.4,0.9,3,0.6,4.2-0.5c5.9-5.9,10-11.4,19.2-11.4  c4.9,0,9.7,1.8,13.4,5.6l14.9,14.9c7.4,7.4,7.4,19.4,0,26.8l-5.8,5.8c-1.2,1.2-1.4,2.7-0.6,4.2c5.4,9.3,9.6,19.4,12.4,29.8  c0.4,1.6,1.7,2.6,3.3,2.6c8.4,0,15.1-1,21.6,5.6c3.4,3.4,5.6,8.2,5.6,13.4v21.1c0,10.5-8.5,19-19,19v0h-8.2v0c-1.6,0-2.9,1-3.3,2.6  c-1.3,4.8-3.2,10.7-5.2,15.3h0c-2.1,5-4.5,9.8-7.2,14.5c-0.8,1.4-0.6,3,0.6,4.2c5.9,5.9,11.4,10,11.4,19.2c0,4.9-1.9,9.7-5.6,13.4  l-14.9,14.9c-7.4,7.4-19.4,7.4-26.8,0l-6-6c-1-1-2.6-1.1-3.9-0.3c-9.3,5.4-19.4,9.6-29.8,12.4c-1.6,0.4-2.6,1.7-2.6,3.4  c0,8.4,0.9,15.1-5.6,21.6c-3.4,3.4-8.2,5.6-13.4,5.6h-21.1c-10.4,0-19-8.5-19-19v-8.2c0-1.6-0.9-2.9-2.6-3.4  c-10.4-2.8-20.5-7-29.8-12.4c-1.4-0.8-3-0.6-4.2,0.6c-5.9,5.9-10,11.4-19.2,11.4c-4.8,0-9.8-1.9-13.4-5.6h0l-14.9-14.9  c-7.4-7.4-7.4-19.4,0-26.8c8.8-8.8,8.1-6.5,4-14.3h-57.4c-4.3,0-7.8-3.5-7.8-7.8V155.8c0-4.3,3.5-7.8,7.8-7.8h63.5  c4.3,0,7.8,3.5,7.8,7.8v63.7c4.9-3.3,11.1-4.1,16.6-2.2V91.9c0-4.3,3.5-7.8,7.8-7.8h63.5c4.3,0,7.8,3.5,7.8,7.8V185.4z M193.6,377.6  c-1.2-3.3-2.2-6.6-3.1-10c-0.4-1.6-1.7-2.6-3.3-2.6c-8.4,0-15.1,0.9-21.6-5.6c-3.4-3.4-5.6-8.2-5.6-13.4V325c0-10.5,8.5-19,18.9-19  h8.2c1.6,0,2.9-1,3.3-2.6c1.4-5.3,3.2-10.4,5.2-15.3c0.9-2.3,2-4.6,3.1-6.8v-15.4c-0.3-0.7-7.8-5.6-7.8-15.7c0-4.7,1.9-9.9,5.6-13.4  h0l2.3-2.3v-71h-48v214H193.6z M246.5,228.8c0.6,0,1.2-0.2,1.8-0.5c9.3-5.4,19.4-9.6,29.8-12.3c1.6-0.4,2.6-1.7,2.6-3.4h0v-8.2h0  c0-8.6,5.7-15.9,13.8-18.3V99.6h-47.9V228.8z M320.7,200.9h-21.1c-1.9,0-3.4,1.6-3.4,3.5h0v8.2h0c0,8.6-5.7,16.1-14.1,18.3  c-9.2,2.4-17.9,6.1-26.1,10.8c-7.5,4.3-16.8,3.1-22.9-3l-5.8-5.8c-1.3-1.3-3.5-1.3-4.9,0l-14.9,14.9v0c-1.3,1.3-1.3,3.5,0,4.9  l5.8,5.8l0,0c6.1,6.1,7.3,15.4,3,22.9c-4.7,8.1-8.4,17-10.8,26.1c-2.2,8.3-9.7,14.1-18.3,14.1h-8.2c-1.9,0-3.4,1.6-3.4,3.5v21.1  c0,1.9,1.6,3.5,3.4,3.5c7.6,0,13.6-0.9,19.8,3.9c3.2,2.5,5.6,6,6.8,10.2c2.4,9.1,6.1,17.9,10.8,26.1c4.3,7.5,3.1,16.8-3,22.9  l-5.8,5.8c-1.3,1.3-1.3,3.5,0,4.9l14.9,14.9v0c1.3,1.3,3.5,1.3,4.9,0c5.4-5.4,9-10.2,16.7-11.2c4-0.5,8.2,0.3,12,2.4  c8.2,4.8,16.9,8.3,26.1,10.8c8.3,2.2,14.1,9.7,14.1,18.3v8.2c0,1.9,1.6,3.5,3.4,3.5h21.1c1.9,0,3.5-1.6,3.5-3.5  c0-7.6-0.9-13.6,3.9-19.7c2.5-3.2,6-5.7,10.2-6.8c9.2-2.4,17.9-6.1,26.1-10.8c7.5-4.3,16.9-3.1,22.9,3l5.8,5.8  c1.3,1.3,3.5,1.3,4.9,0l14.9-14.9c1.3-1.3,1.3-3.5,0-4.9c-5.4-5.4-10.2-9-11.2-16.8c-0.5-4,0.2-8.2,2.4-12c2.3-4,4.4-8.3,6.2-12.7h0  c1.8-4.3,3.3-8.7,4.5-13.4c2.2-8.4,9.7-14.1,18.3-14.1v0h8.2v0c1.9,0,3.4-1.6,3.4-3.5V325c0-1.9-1.5-3.5-3.4-3.5  c-7.6,0-13.6,0.9-19.7-3.9c-3.2-2.5-5.7-6-6.8-10.2c-2.4-9.2-6.1-17.9-10.8-26.1c-4.3-7.5-3.1-16.8,3-22.9l5.8-5.8  c1.3-1.3,1.3-3.5,0-4.9l-14.9-14.9c-1.3-1.3-3.5-1.3-4.9,0c-5.4,5.4-9,10.2-16.7,11.2c-4,0.5-8.2-0.2-12-2.4  c-8.1-4.7-16.9-8.4-26.1-10.8c-8.3-2.2-14.1-9.7-14.1-18.3v-8.2C324.2,202.5,322.6,200.9,320.7,200.9L320.7,200.9z M47.4,235.5h63.5  c4.3,0,7.8,3.5,7.8,7.8v142.1c0,4.3-3.5,7.8-7.8,7.8H47.4c-4.3,0-7.8-3.5-7.8-7.8V243.3C39.7,239,43.2,235.5,47.4,235.5L47.4,235.5z   M103.1,251.1H55.2v126.6h47.9V251.1z M249.7,29.3c-8.2-2.8-6.1-15,2.5-15l19.9,0c5.1,0,8.9,4.9,7.4,10L274.3,43  c-2.3,8.4-14.5,7.1-15.2-1.5L62.4,187.1c-3.4,2.5-8.3,1.8-10.8-1.6c-2.5-3.4-1.8-8.3,1.6-10.8L249.7,29.3z"/></svg>